<svg width="472" height="164" viewBox="0 0 472 164" fill="none" xmlns="http://www.w3.org/2000/svg">
<path opacity="0.7" d="M209.765 43.6C213.325 45.52 214.145 50.72 212.225 59.2C212.145 59.44 212.005 59.62 211.805 59.74C211.605 59.86 211.385 59.9 211.145 59.86C210.905 59.82 210.705 59.7 210.545 59.5C210.425 59.26 210.405 59.02 210.485 58.78C212.205 51.22 211.685 46.68 208.925 45.16C206.605 43.92 203.045 44.68 198.245 47.44C193.445 50.16 188.845 53.78 184.445 58.3C180.205 62.7 176.325 67.72 172.805 73.36C169.285 79 166.425 84.76 164.225 90.64C162.225 96.08 161.065 100.86 160.745 104.98C160.425 109.1 161.025 112 162.545 113.68C164.065 115.32 166.465 115.58 169.745 114.46C173.025 113.38 177.005 111 181.685 107.32C184.205 105.36 188.045 102.1 193.205 97.54C197.805 93.54 201.225 90.68 203.465 88.96C205.705 87.24 207.425 86.28 208.625 86.08C208.865 86.04 209.085 86.1 209.285 86.26C209.485 86.42 209.605 86.62 209.645 86.86C209.685 87.1 209.625 87.32 209.465 87.52C209.345 87.72 209.165 87.82 208.925 87.82C208.365 87.9 207.605 88.24 206.645 88.84C205.685 89.44 204.425 90.38 202.865 91.66C201.345 92.9 200.045 93.98 198.965 94.9C197.925 95.82 196.405 97.16 194.405 98.92C189.205 103.44 185.325 106.72 182.765 108.76C175.845 114.2 170.325 116.92 166.205 116.92C164.165 116.92 162.505 116.22 161.225 114.82C159.745 113.22 158.945 110.76 158.825 107.44C158.745 104.16 159.305 100.42 160.505 96.22C161.745 92.02 163.405 87.64 165.485 83.08C167.605 78.52 170.205 73.96 173.285 69.4C176.405 64.8 179.705 60.7 183.185 57.1C186.185 53.94 189.325 51.18 192.605 48.82C195.885 46.46 199.085 44.76 202.205 43.72C205.365 42.64 207.885 42.6 209.765 43.6ZM244.54 86.68C244.78 86.76 244.94 86.92 245.02 87.16C245.1 87.4 245.08 87.64 244.96 87.88C244.88 88.08 244.72 88.22 244.48 88.3C239.64 90.02 232.28 93.74 222.4 99.46C219.56 101.06 217.5 102.18 216.22 102.82C214.98 103.46 214.04 103.78 213.4 103.78C213 103.78 212.66 103.64 212.38 103.36C211.86 102.84 211.86 101.96 212.38 100.72C212.94 99.44 214.34 96.98 216.58 93.34C216.78 92.98 216.96 92.66 217.12 92.38C215.8 92.94 213.38 94.54 209.86 97.18L209.44 97.54C203.92 101.62 200.42 102.78 198.94 101.02C198.1 100.02 198.36 98.36 199.72 96.04C201.08 93.68 203.4 90.9 206.68 87.7C208.24 86.18 209.8 85.14 211.36 84.58C212.92 83.98 214.3 83.9 215.5 84.34C217.46 85.06 218.6 86.78 218.92 89.5C218.96 90.06 218.72 90.38 218.2 90.46C218.4 90.54 218.56 90.64 218.68 90.76C219.36 91.36 219.16 92.54 218.08 94.3C215.56 98.46 214.14 101 213.82 101.92C214.78 101.64 217.36 100.3 221.56 97.9C231.52 92.18 238.96 88.42 243.88 86.62C244.12 86.54 244.34 86.56 244.54 86.68ZM208.84 95.8C213.48 92.28 216.42 90.48 217.66 90.4C217.34 90.28 217.18 90.04 217.18 89.68C216.94 87.68 216.18 86.44 214.9 85.96C214.58 85.88 214.22 85.84 213.82 85.84C212.06 85.84 210.08 86.9 207.88 89.02C205.72 91.1 204.02 93 202.78 94.72C201.5 96.4 200.72 97.64 200.44 98.44C200.16 99.2 200.1 99.68 200.26 99.88C200.34 99.96 200.48 100.02 200.68 100.06C200.84 100.06 201.14 100 201.58 99.88C202.02 99.76 202.54 99.58 203.14 99.34C203.7 99.1 204.46 98.7 205.42 98.14C206.34 97.58 207.34 96.9 208.42 96.1L208.84 95.8ZM282.433 64.3C282.673 64.34 282.873 64.46 283.033 64.66C283.193 64.82 283.253 65.02 283.213 65.26C283.173 65.5 283.053 65.7 282.853 65.86C282.693 66.02 282.493 66.08 282.253 66.04C276.853 65.56 267.993 65.7 255.673 66.46C250.953 74.86 247.373 82.14 244.933 88.3C241.973 95.58 241.353 99.98 243.073 101.5C243.353 101.74 243.693 101.92 244.093 102.04C244.533 102.12 245.033 102.14 245.593 102.1C246.193 102.02 246.773 101.92 247.333 101.8C247.933 101.68 248.653 101.46 249.493 101.14C250.333 100.82 251.073 100.54 251.713 100.3C252.393 100.02 253.233 99.64 254.233 99.16C255.273 98.64 256.133 98.22 256.813 97.9C257.493 97.54 258.393 97.06 259.513 96.46C260.633 95.86 261.473 95.4 262.033 95.08C262.633 94.76 263.513 94.28 264.673 93.64C271.473 89.88 276.173 87.54 278.773 86.62C279.013 86.54 279.233 86.56 279.433 86.68C279.673 86.76 279.833 86.92 279.913 87.16C279.993 87.4 279.973 87.64 279.853 87.88C279.773 88.08 279.613 88.22 279.373 88.3C276.853 89.18 272.233 91.48 265.513 95.2C261.993 97.16 259.293 98.62 257.413 99.58C255.573 100.54 253.433 101.5 250.993 102.46C248.553 103.38 246.593 103.84 245.113 103.84C243.753 103.84 242.673 103.5 241.873 102.82C239.553 100.78 240.033 95.72 243.313 87.64C245.673 81.72 249.093 74.7 253.573 66.58C253.493 66.58 253.333 66.6 253.093 66.64C252.893 66.64 252.733 66.64 252.613 66.64C244.253 67.16 238.253 67.44 234.613 67.48C234.373 67.48 234.173 67.4 234.013 67.24C233.813 67.04 233.713 66.82 233.713 66.58C233.713 66.34 233.793 66.14 233.953 65.98C234.113 65.82 234.333 65.72 234.613 65.68C238.213 65.68 244.193 65.4 252.553 64.84C253.193 64.8 253.873 64.76 254.593 64.72C257.313 59.96 260.073 55.38 262.873 50.98C263.193 50.5 263.593 50.42 264.073 50.74C264.593 51.06 264.693 51.46 264.373 51.94C261.773 55.98 259.233 60.2 256.753 64.6C268.473 63.88 277.033 63.78 282.433 64.3ZM315.263 86.68C315.503 86.76 315.663 86.92 315.743 87.16C315.823 87.4 315.803 87.64 315.683 87.88C315.603 88.08 315.443 88.22 315.203 88.3C310.363 90.02 303.003 93.74 293.123 99.46C290.283 101.06 288.223 102.18 286.943 102.82C285.703 103.46 284.763 103.78 284.123 103.78C283.723 103.78 283.383 103.64 283.103 103.36C282.583 102.84 282.583 101.96 283.103 100.72C283.663 99.44 285.063 96.98 287.303 93.34C287.503 92.98 287.683 92.66 287.843 92.38C286.523 92.94 284.103 94.54 280.583 97.18L280.163 97.54C274.643 101.62 271.143 102.78 269.663 101.02C268.823 100.02 269.083 98.36 270.443 96.04C271.803 93.68 274.123 90.9 277.403 87.7C278.963 86.18 280.523 85.14 282.083 84.58C283.643 83.98 285.023 83.9 286.223 84.34C288.183 85.06 289.323 86.78 289.643 89.5C289.683 90.06 289.443 90.38 288.923 90.46C289.123 90.54 289.283 90.64 289.403 90.76C290.083 91.36 289.883 92.54 288.803 94.3C286.283 98.46 284.863 101 284.543 101.92C285.503 101.64 288.083 100.3 292.283 97.9C302.243 92.18 309.683 88.42 314.603 86.62C314.843 86.54 315.063 86.56 315.263 86.68ZM279.563 95.8C284.203 92.28 287.143 90.48 288.383 90.4C288.063 90.28 287.903 90.04 287.903 89.68C287.663 87.68 286.903 86.44 285.623 85.96C285.303 85.88 284.943 85.84 284.543 85.84C282.783 85.84 280.803 86.9 278.603 89.02C276.443 91.1 274.743 93 273.503 94.72C272.223 96.4 271.443 97.64 271.163 98.44C270.883 99.2 270.823 99.68 270.983 99.88C271.063 99.96 271.203 100.02 271.403 100.06C271.563 100.06 271.863 100 272.303 99.88C272.743 99.76 273.263 99.58 273.863 99.34C274.423 99.1 275.183 98.7 276.143 98.14C277.063 97.58 278.063 96.9 279.143 96.1L279.563 95.8Z" fill="white"/>
<path opacity="0.7" d="M209.765 43.6C213.325 45.52 214.145 50.72 212.225 59.2C212.145 59.44 212.005 59.62 211.805 59.74C211.605 59.86 211.385 59.9 211.145 59.86C210.905 59.82 210.705 59.7 210.545 59.5C210.425 59.26 210.405 59.02 210.485 58.78C212.205 51.22 211.685 46.68 208.925 45.16C206.605 43.92 203.045 44.68 198.245 47.44C193.445 50.16 188.845 53.78 184.445 58.3C180.205 62.7 176.325 67.72 172.805 73.36C169.285 79 166.425 84.76 164.225 90.64C162.225 96.08 161.065 100.86 160.745 104.98C160.425 109.1 161.025 112 162.545 113.68C164.065 115.32 166.465 115.58 169.745 114.46C173.025 113.38 177.005 111 181.685 107.32C184.205 105.36 188.045 102.1 193.205 97.54C197.805 93.54 201.225 90.68 203.465 88.96C205.705 87.24 207.425 86.28 208.625 86.08C208.865 86.04 209.085 86.1 209.285 86.26C209.485 86.42 209.605 86.62 209.645 86.86C209.685 87.1 209.625 87.32 209.465 87.52C209.345 87.72 209.165 87.82 208.925 87.82C208.365 87.9 207.605 88.24 206.645 88.84C205.685 89.44 204.425 90.38 202.865 91.66C201.345 92.9 200.045 93.98 198.965 94.9C197.925 95.82 196.405 97.16 194.405 98.92C189.205 103.44 185.325 106.72 182.765 108.76C175.845 114.2 170.325 116.92 166.205 116.92C164.165 116.92 162.505 116.22 161.225 114.82C159.745 113.22 158.945 110.76 158.825 107.44C158.745 104.16 159.305 100.42 160.505 96.22C161.745 92.02 163.405 87.64 165.485 83.08C167.605 78.52 170.205 73.96 173.285 69.4C176.405 64.8 179.705 60.7 183.185 57.1C186.185 53.94 189.325 51.18 192.605 48.82C195.885 46.46 199.085 44.76 202.205 43.72C205.365 42.64 207.885 42.6 209.765 43.6ZM244.54 86.68C244.78 86.76 244.94 86.92 245.02 87.16C245.1 87.4 245.08 87.64 244.96 87.88C244.88 88.08 244.72 88.22 244.48 88.3C239.64 90.02 232.28 93.74 222.4 99.46C219.56 101.06 217.5 102.18 216.22 102.82C214.98 103.46 214.04 103.78 213.4 103.78C213 103.78 212.66 103.64 212.38 103.36C211.86 102.84 211.86 101.96 212.38 100.72C212.94 99.44 214.34 96.98 216.58 93.34C216.78 92.98 216.96 92.66 217.12 92.38C215.8 92.94 213.38 94.54 209.86 97.18L209.44 97.54C203.92 101.62 200.42 102.78 198.94 101.02C198.1 100.02 198.36 98.36 199.72 96.04C201.08 93.68 203.4 90.9 206.68 87.7C208.24 86.18 209.8 85.14 211.36 84.58C212.92 83.98 214.3 83.9 215.5 84.34C217.46 85.06 218.6 86.78 218.92 89.5C218.96 90.06 218.72 90.38 218.2 90.46C218.4 90.54 218.56 90.64 218.68 90.76C219.36 91.36 219.16 92.54 218.08 94.3C215.56 98.46 214.14 101 213.82 101.92C214.78 101.64 217.36 100.3 221.56 97.9C231.52 92.18 238.96 88.42 243.88 86.62C244.12 86.54 244.34 86.56 244.54 86.68ZM208.84 95.8C213.48 92.28 216.42 90.48 217.66 90.4C217.34 90.28 217.18 90.04 217.18 89.68C216.94 87.68 216.18 86.44 214.9 85.96C214.58 85.88 214.22 85.84 213.82 85.84C212.06 85.84 210.08 86.9 207.88 89.02C205.72 91.1 204.02 93 202.78 94.72C201.5 96.4 200.72 97.64 200.44 98.44C200.16 99.2 200.1 99.68 200.26 99.88C200.34 99.96 200.48 100.02 200.68 100.06C200.84 100.06 201.14 100 201.58 99.88C202.02 99.76 202.54 99.58 203.14 99.34C203.7 99.1 204.46 98.7 205.42 98.14C206.34 97.58 207.34 96.9 208.42 96.1L208.84 95.8ZM282.433 64.3C282.673 64.34 282.873 64.46 283.033 64.66C283.193 64.82 283.253 65.02 283.213 65.26C283.173 65.5 283.053 65.7 282.853 65.86C282.693 66.02 282.493 66.08 282.253 66.04C276.853 65.56 267.993 65.7 255.673 66.46C250.953 74.86 247.373 82.14 244.933 88.3C241.973 95.58 241.353 99.98 243.073 101.5C243.353 101.74 243.693 101.92 244.093 102.04C244.533 102.12 245.033 102.14 245.593 102.1C246.193 102.02 246.773 101.92 247.333 101.8C247.933 101.68 248.653 101.46 249.493 101.14C250.333 100.82 251.073 100.54 251.713 100.3C252.393 100.02 253.233 99.64 254.233 99.16C255.273 98.64 256.133 98.22 256.813 97.9C257.493 97.54 258.393 97.06 259.513 96.46C260.633 95.86 261.473 95.4 262.033 95.08C262.633 94.76 263.513 94.28 264.673 93.64C271.473 89.88 276.173 87.54 278.773 86.62C279.013 86.54 279.233 86.56 279.433 86.68C279.673 86.76 279.833 86.92 279.913 87.16C279.993 87.4 279.973 87.64 279.853 87.88C279.773 88.08 279.613 88.22 279.373 88.3C276.853 89.18 272.233 91.48 265.513 95.2C261.993 97.16 259.293 98.62 257.413 99.58C255.573 100.54 253.433 101.5 250.993 102.46C248.553 103.38 246.593 103.84 245.113 103.84C243.753 103.84 242.673 103.5 241.873 102.82C239.553 100.78 240.033 95.72 243.313 87.64C245.673 81.72 249.093 74.7 253.573 66.58C253.493 66.58 253.333 66.6 253.093 66.64C252.893 66.64 252.733 66.64 252.613 66.64C244.253 67.16 238.253 67.44 234.613 67.48C234.373 67.48 234.173 67.4 234.013 67.24C233.813 67.04 233.713 66.82 233.713 66.58C233.713 66.34 233.793 66.14 233.953 65.98C234.113 65.82 234.333 65.72 234.613 65.68C238.213 65.68 244.193 65.4 252.553 64.84C253.193 64.8 253.873 64.76 254.593 64.72C257.313 59.96 260.073 55.38 262.873 50.98C263.193 50.5 263.593 50.42 264.073 50.74C264.593 51.06 264.693 51.46 264.373 51.94C261.773 55.98 259.233 60.2 256.753 64.6C268.473 63.88 277.033 63.78 282.433 64.3ZM315.263 86.68C315.503 86.76 315.663 86.92 315.743 87.16C315.823 87.4 315.803 87.64 315.683 87.88C315.603 88.08 315.443 88.22 315.203 88.3C310.363 90.02 303.003 93.74 293.123 99.46C290.283 101.06 288.223 102.18 286.943 102.82C285.703 103.46 284.763 103.78 284.123 103.78C283.723 103.78 283.383 103.64 283.103 103.36C282.583 102.84 282.583 101.96 283.103 100.72C283.663 99.44 285.063 96.98 287.303 93.34C287.503 92.98 287.683 92.66 287.843 92.38C286.523 92.94 284.103 94.54 280.583 97.18L280.163 97.54C274.643 101.62 271.143 102.78 269.663 101.02C268.823 100.02 269.083 98.36 270.443 96.04C271.803 93.68 274.123 90.9 277.403 87.7C278.963 86.18 280.523 85.14 282.083 84.58C283.643 83.98 285.023 83.9 286.223 84.34C288.183 85.06 289.323 86.78 289.643 89.5C289.683 90.06 289.443 90.38 288.923 90.46C289.123 90.54 289.283 90.64 289.403 90.76C290.083 91.36 289.883 92.54 288.803 94.3C286.283 98.46 284.863 101 284.543 101.92C285.503 101.64 288.083 100.3 292.283 97.9C302.243 92.18 309.683 88.42 314.603 86.62C314.843 86.54 315.063 86.56 315.263 86.68ZM279.563 95.8C284.203 92.28 287.143 90.48 288.383 90.4C288.063 90.28 287.903 90.04 287.903 89.68C287.663 87.68 286.903 86.44 285.623 85.96C285.303 85.88 284.943 85.84 284.543 85.84C282.783 85.84 280.803 86.9 278.603 89.02C276.443 91.1 274.743 93 273.503 94.72C272.223 96.4 271.443 97.64 271.163 98.44C270.883 99.2 270.823 99.68 270.983 99.88C271.063 99.96 271.203 100.02 271.403 100.06C271.563 100.06 271.863 100 272.303 99.88C272.743 99.76 273.263 99.58 273.863 99.34C274.423 99.1 275.183 98.7 276.143 98.14C277.063 97.58 278.063 96.9 279.143 96.1L279.563 95.8Z" fill="white"/>
<path opacity="0.7" d="M210.765 43.6C214.325 45.52 215.145 50.72 213.225 59.2C213.145 59.44 213.005 59.62 212.805 59.74C212.605 59.86 212.385 59.9 212.145 59.86C211.905 59.82 211.705 59.7 211.545 59.5C211.425 59.26 211.405 59.02 211.485 58.78C213.205 51.22 212.685 46.68 209.925 45.16C207.605 43.92 204.045 44.68 199.245 47.44C194.445 50.16 189.845 53.78 185.445 58.3C181.205 62.7 177.325 67.72 173.805 73.36C170.285 79 167.425 84.76 165.225 90.64C163.225 96.08 162.065 100.86 161.745 104.98C161.425 109.1 162.025 112 163.545 113.68C165.065 115.32 167.465 115.58 170.745 114.46C174.025 113.38 178.005 111 182.685 107.32C185.205 105.36 189.045 102.1 194.205 97.54C198.805 93.54 202.225 90.68 204.465 88.96C206.705 87.24 208.425 86.28 209.625 86.08C209.865 86.04 210.085 86.1 210.285 86.26C210.485 86.42 210.605 86.62 210.645 86.86C210.685 87.1 210.625 87.32 210.465 87.52C210.345 87.72 210.165 87.82 209.925 87.82C209.365 87.9 208.605 88.24 207.645 88.84C206.685 89.44 205.425 90.38 203.865 91.66C202.345 92.9 201.045 93.98 199.965 94.9C198.925 95.82 197.405 97.16 195.405 98.92C190.205 103.44 186.325 106.72 183.765 108.76C176.845 114.2 171.325 116.92 167.205 116.92C165.165 116.92 163.505 116.22 162.225 114.82C160.745 113.22 159.945 110.76 159.825 107.44C159.745 104.16 160.305 100.42 161.505 96.22C162.745 92.02 164.405 87.64 166.485 83.08C168.605 78.52 171.205 73.96 174.285 69.4C177.405 64.8 180.705 60.7 184.185 57.1C187.185 53.94 190.325 51.18 193.605 48.82C196.885 46.46 200.085 44.76 203.205 43.72C206.365 42.64 208.885 42.6 210.765 43.6ZM245.54 86.68C245.78 86.76 245.94 86.92 246.02 87.16C246.1 87.4 246.08 87.64 245.96 87.88C245.88 88.08 245.72 88.22 245.48 88.3C240.64 90.02 233.28 93.74 223.4 99.46C220.56 101.06 218.5 102.18 217.22 102.82C215.98 103.46 215.04 103.78 214.4 103.78C214 103.78 213.66 103.64 213.38 103.36C212.86 102.84 212.86 101.96 213.38 100.72C213.94 99.44 215.34 96.98 217.58 93.34C217.78 92.98 217.96 92.66 218.12 92.38C216.8 92.94 214.38 94.54 210.86 97.18L210.44 97.54C204.92 101.62 201.42 102.78 199.94 101.02C199.1 100.02 199.36 98.36 200.72 96.04C202.08 93.68 204.4 90.9 207.68 87.7C209.24 86.18 210.8 85.14 212.36 84.58C213.92 83.98 215.3 83.9 216.5 84.34C218.46 85.06 219.6 86.78 219.92 89.5C219.96 90.06 219.72 90.38 219.2 90.46C219.4 90.54 219.56 90.64 219.68 90.76C220.36 91.36 220.16 92.54 219.08 94.3C216.56 98.46 215.14 101 214.82 101.92C215.78 101.64 218.36 100.3 222.56 97.9C232.52 92.18 239.96 88.42 244.88 86.62C245.12 86.54 245.34 86.56 245.54 86.68ZM209.84 95.8C214.48 92.28 217.42 90.48 218.66 90.4C218.34 90.28 218.18 90.04 218.18 89.68C217.94 87.68 217.18 86.44 215.9 85.96C215.58 85.88 215.22 85.84 214.82 85.84C213.06 85.84 211.08 86.9 208.88 89.02C206.72 91.1 205.02 93 203.78 94.72C202.5 96.4 201.72 97.64 201.44 98.44C201.16 99.2 201.1 99.68 201.26 99.88C201.34 99.96 201.48 100.02 201.68 100.06C201.84 100.06 202.14 100 202.58 99.88C203.02 99.76 203.54 99.58 204.14 99.34C204.7 99.1 205.46 98.7 206.42 98.14C207.34 97.58 208.34 96.9 209.42 96.1L209.84 95.8ZM283.433 64.3C283.673 64.34 283.873 64.46 284.033 64.66C284.193 64.82 284.253 65.02 284.213 65.26C284.173 65.5 284.053 65.7 283.853 65.86C283.693 66.02 283.493 66.08 283.253 66.04C277.853 65.56 268.993 65.7 256.673 66.46C251.953 74.86 248.373 82.14 245.933 88.3C242.973 95.58 242.353 99.98 244.073 101.5C244.353 101.74 244.693 101.92 245.093 102.04C245.533 102.12 246.033 102.14 246.593 102.1C247.193 102.02 247.773 101.92 248.333 101.8C248.933 101.68 249.653 101.46 250.493 101.14C251.333 100.82 252.073 100.54 252.713 100.3C253.393 100.02 254.233 99.64 255.233 99.16C256.273 98.64 257.133 98.22 257.813 97.9C258.493 97.54 259.393 97.06 260.513 96.46C261.633 95.86 262.473 95.4 263.033 95.08C263.633 94.76 264.513 94.28 265.673 93.64C272.473 89.88 277.173 87.54 279.773 86.62C280.013 86.54 280.233 86.56 280.433 86.68C280.673 86.76 280.833 86.92 280.913 87.16C280.993 87.4 280.973 87.64 280.853 87.88C280.773 88.08 280.613 88.22 280.373 88.3C277.853 89.18 273.233 91.48 266.513 95.2C262.993 97.16 260.293 98.62 258.413 99.58C256.573 100.54 254.433 101.5 251.993 102.46C249.553 103.38 247.593 103.84 246.113 103.84C244.753 103.84 243.673 103.5 242.873 102.82C240.553 100.78 241.033 95.72 244.313 87.64C246.673 81.72 250.093 74.7 254.573 66.58C254.493 66.58 254.333 66.6 254.093 66.64C253.893 66.64 253.733 66.64 253.613 66.64C245.253 67.16 239.253 67.44 235.613 67.48C235.373 67.48 235.173 67.4 235.013 67.24C234.813 67.04 234.713 66.82 234.713 66.58C234.713 66.34 234.793 66.14 234.953 65.98C235.113 65.82 235.333 65.72 235.613 65.68C239.213 65.68 245.193 65.4 253.553 64.84C254.193 64.8 254.873 64.76 255.593 64.72C258.313 59.96 261.073 55.38 263.873 50.98C264.193 50.5 264.593 50.42 265.073 50.74C265.593 51.06 265.693 51.46 265.373 51.94C262.773 55.98 260.233 60.2 257.753 64.6C269.473 63.88 278.033 63.78 283.433 64.3ZM316.263 86.68C316.503 86.76 316.663 86.92 316.743 87.16C316.823 87.4 316.803 87.64 316.683 87.88C316.603 88.08 316.443 88.22 316.203 88.3C311.363 90.02 304.003 93.74 294.123 99.46C291.283 101.06 289.223 102.18 287.943 102.82C286.703 103.46 285.763 103.78 285.123 103.78C284.723 103.78 284.383 103.64 284.103 103.36C283.583 102.84 283.583 101.96 284.103 100.72C284.663 99.44 286.063 96.98 288.303 93.34C288.503 92.98 288.683 92.66 288.843 92.38C287.523 92.94 285.103 94.54 281.583 97.18L281.163 97.54C275.643 101.62 272.143 102.78 270.663 101.02C269.823 100.02 270.083 98.36 271.443 96.04C272.803 93.68 275.123 90.9 278.403 87.7C279.963 86.18 281.523 85.14 283.083 84.58C284.643 83.98 286.023 83.9 287.223 84.34C289.183 85.06 290.323 86.78 290.643 89.5C290.683 90.06 290.443 90.38 289.923 90.46C290.123 90.54 290.283 90.64 290.403 90.76C291.083 91.36 290.883 92.54 289.803 94.3C287.283 98.46 285.863 101 285.543 101.92C286.503 101.64 289.083 100.3 293.283 97.9C303.243 92.18 310.683 88.42 315.603 86.62C315.843 86.54 316.063 86.56 316.263 86.68ZM280.563 95.8C285.203 92.28 288.143 90.48 289.383 90.4C289.063 90.28 288.903 90.04 288.903 89.68C288.663 87.68 287.903 86.44 286.623 85.96C286.303 85.88 285.943 85.84 285.543 85.84C283.783 85.84 281.803 86.9 279.603 89.02C277.443 91.1 275.743 93 274.503 94.72C273.223 96.4 272.443 97.64 272.163 98.44C271.883 99.2 271.823 99.68 271.983 99.88C272.063 99.96 272.203 100.02 272.403 100.06C272.563 100.06 272.863 100 273.303 99.88C273.743 99.76 274.263 99.58 274.863 99.34C275.423 99.1 276.183 98.7 277.143 98.14C278.063 97.58 279.063 96.9 280.143 96.1L280.563 95.8Z" fill="white"/>
<path d="M175.11 132.14C174.87 132.14 174.684 132.073 174.55 131.94C174.417 131.793 174.35 131.593 174.35 131.34V118.56C174.35 118.293 174.417 118.093 174.55 117.96C174.684 117.827 174.87 117.76 175.11 117.76C175.324 117.76 175.49 117.807 175.61 117.9C175.744 117.98 175.864 118.12 175.97 118.32L181.45 128.64H180.85L186.31 118.32C186.417 118.12 186.53 117.98 186.65 117.9C186.77 117.807 186.944 117.76 187.17 117.76C187.397 117.76 187.577 117.827 187.71 117.96C187.844 118.093 187.91 118.293 187.91 118.56V131.34C187.91 131.593 187.844 131.793 187.71 131.94C187.59 132.073 187.404 132.14 187.15 132.14C186.91 132.14 186.724 132.073 186.59 131.94C186.457 131.793 186.39 131.593 186.39 131.34V120.1H186.87L181.87 129.48C181.777 129.653 181.677 129.78 181.57 129.86C181.477 129.927 181.337 129.96 181.15 129.96C180.964 129.96 180.817 129.92 180.71 129.84C180.604 129.76 180.51 129.64 180.43 129.48L175.37 120.08H175.85V131.34C175.85 131.593 175.784 131.793 175.65 131.94C175.53 132.073 175.35 132.14 175.11 132.14ZM192.24 132.14C191.973 132.14 191.766 132.067 191.62 131.92C191.486 131.76 191.42 131.547 191.42 131.28V118.62C191.42 118.34 191.486 118.127 191.62 117.98C191.766 117.833 191.973 117.76 192.24 117.76C192.506 117.76 192.706 117.833 192.84 117.98C192.986 118.127 193.06 118.34 193.06 118.62V131.28C193.06 131.547 192.993 131.76 192.86 131.92C192.726 132.067 192.52 132.14 192.24 132.14ZM201.116 132.18C200.49 132.18 199.876 132.127 199.276 132.02C198.676 131.913 198.116 131.76 197.596 131.56C197.09 131.36 196.63 131.107 196.216 130.8C196.056 130.68 195.943 130.547 195.876 130.4C195.823 130.24 195.81 130.087 195.836 129.94C195.876 129.78 195.943 129.647 196.036 129.54C196.143 129.433 196.27 129.373 196.416 129.36C196.563 129.347 196.723 129.393 196.896 129.5C197.496 129.927 198.136 130.24 198.816 130.44C199.496 130.627 200.263 130.72 201.116 130.72C202.316 130.72 203.203 130.5 203.776 130.06C204.363 129.607 204.656 129.013 204.656 128.28C204.656 127.68 204.443 127.213 204.016 126.88C203.603 126.533 202.903 126.26 201.916 126.06L199.836 125.64C198.583 125.373 197.643 124.94 197.016 124.34C196.403 123.727 196.096 122.913 196.096 121.9C196.096 121.273 196.223 120.707 196.476 120.2C196.73 119.68 197.083 119.24 197.536 118.88C197.99 118.507 198.53 118.22 199.156 118.02C199.783 117.82 200.476 117.72 201.236 117.72C202.076 117.72 202.856 117.84 203.576 118.08C204.31 118.307 204.97 118.653 205.556 119.12C205.703 119.24 205.803 119.38 205.856 119.54C205.91 119.687 205.916 119.833 205.876 119.98C205.836 120.113 205.763 120.227 205.656 120.32C205.563 120.413 205.436 120.467 205.276 120.48C205.13 120.493 204.963 120.44 204.776 120.32C204.243 119.92 203.69 119.633 203.116 119.46C202.543 119.273 201.91 119.18 201.216 119.18C200.51 119.18 199.896 119.287 199.376 119.5C198.87 119.713 198.47 120.027 198.176 120.44C197.896 120.84 197.756 121.307 197.756 121.84C197.756 122.48 197.95 122.987 198.336 123.36C198.736 123.733 199.383 124.007 200.276 124.18L202.356 124.62C203.703 124.9 204.696 125.327 205.336 125.9C205.99 126.46 206.316 127.227 206.316 128.2C206.316 128.787 206.196 129.327 205.956 129.82C205.716 130.313 205.37 130.74 204.916 131.1C204.463 131.447 203.916 131.713 203.276 131.9C202.636 132.087 201.916 132.18 201.116 132.18ZM215.377 132C215.137 132 214.951 131.94 214.817 131.82C214.684 131.687 214.617 131.507 214.617 131.28C214.617 131.053 214.684 130.887 214.817 130.78C214.951 130.66 215.137 130.6 215.377 130.6H217.977V119.26H218.837L215.937 121.18C215.764 121.273 215.597 121.313 215.437 121.3C215.291 121.287 215.164 121.233 215.057 121.14C214.964 121.033 214.897 120.913 214.857 120.78C214.817 120.633 214.824 120.487 214.877 120.34C214.931 120.18 215.044 120.047 215.217 119.94L217.977 118.12C218.151 118.013 218.317 117.927 218.477 117.86C218.637 117.793 218.797 117.76 218.957 117.76C219.144 117.76 219.297 117.82 219.417 117.94C219.551 118.047 219.617 118.22 219.617 118.46V130.6H222.017C222.257 130.6 222.444 130.66 222.577 130.78C222.711 130.887 222.777 131.053 222.777 131.28C222.777 131.52 222.711 131.7 222.577 131.82C222.444 131.94 222.257 132 222.017 132H215.377ZM230.57 132.18C229.81 132.18 229.05 132.067 228.29 131.84C227.543 131.613 226.863 131.26 226.25 130.78C226.09 130.673 225.983 130.547 225.93 130.4C225.876 130.253 225.87 130.107 225.91 129.96C225.95 129.813 226.023 129.693 226.13 129.6C226.236 129.493 226.363 129.433 226.51 129.42C226.67 129.407 226.836 129.46 227.01 129.58C227.556 129.967 228.123 130.253 228.71 130.44C229.296 130.627 229.91 130.72 230.55 130.72C231.203 130.72 231.763 130.6 232.23 130.36C232.71 130.107 233.07 129.76 233.31 129.32C233.563 128.867 233.69 128.34 233.69 127.74C233.69 126.82 233.423 126.067 232.89 125.48C232.356 124.893 231.623 124.6 230.69 124.6C230.116 124.6 229.59 124.707 229.11 124.92C228.63 125.133 228.19 125.473 227.79 125.94C227.696 126.047 227.583 126.14 227.45 126.22C227.33 126.287 227.19 126.32 227.03 126.32C226.803 126.32 226.623 126.26 226.49 126.14C226.37 126.007 226.31 125.833 226.31 125.62V118.66C226.31 118.407 226.376 118.22 226.51 118.1C226.643 117.967 226.83 117.9 227.07 117.9H233.87C234.123 117.9 234.31 117.96 234.43 118.08C234.563 118.2 234.63 118.373 234.63 118.6C234.63 118.827 234.563 119 234.43 119.12C234.31 119.24 234.123 119.3 233.87 119.3H227.93V124.92H227.49C227.836 124.36 228.316 123.933 228.93 123.64C229.543 123.333 230.23 123.18 230.99 123.18C231.883 123.18 232.65 123.367 233.29 123.74C233.943 124.113 234.443 124.64 234.79 125.32C235.15 125.987 235.33 126.767 235.33 127.66C235.33 128.54 235.136 129.32 234.75 130C234.363 130.68 233.816 131.213 233.11 131.6C232.403 131.987 231.556 132.18 230.57 132.18ZM242.858 132.14C242.645 132.14 242.471 132.093 242.338 132C242.218 131.893 242.145 131.76 242.118 131.6C242.105 131.427 242.145 131.233 242.238 131.02L247.738 118.5C247.858 118.233 247.998 118.047 248.158 117.94C248.331 117.82 248.518 117.76 248.718 117.76C248.918 117.76 249.098 117.82 249.258 117.94C249.431 118.047 249.571 118.233 249.678 118.5L255.198 131.02C255.305 131.233 255.345 131.427 255.318 131.6C255.305 131.773 255.238 131.907 255.118 132C254.998 132.093 254.831 132.14 254.618 132.14C254.378 132.14 254.185 132.08 254.038 131.96C253.891 131.827 253.771 131.64 253.678 131.4L252.198 127.98L252.998 128.4H244.398L245.218 127.98L243.758 131.4C243.638 131.653 243.511 131.84 243.378 131.96C243.245 132.08 243.071 132.14 242.858 132.14ZM248.698 119.82L245.478 127.4L244.998 127.02H252.398L251.958 127.4L248.738 119.82H248.698ZM258.508 132.14C258.255 132.14 258.062 132.073 257.928 131.94C257.795 131.793 257.728 131.587 257.728 131.32V118.6C257.728 118.333 257.795 118.127 257.928 117.98C258.062 117.833 258.235 117.76 258.448 117.76C258.662 117.76 258.815 117.8 258.908 117.88C259.015 117.947 259.135 118.073 259.268 118.26L267.988 129.88H267.508V118.56C267.508 118.307 267.575 118.113 267.708 117.98C267.842 117.833 268.035 117.76 268.288 117.76C268.528 117.76 268.708 117.833 268.828 117.98C268.962 118.113 269.028 118.307 269.028 118.56V131.34C269.028 131.593 268.968 131.793 268.848 131.94C268.742 132.073 268.582 132.14 268.368 132.14C268.168 132.14 268.008 132.1 267.888 132.02C267.768 131.94 267.642 131.813 267.508 131.64L258.808 120.02H259.268V131.32C259.268 131.587 259.202 131.793 259.068 131.94C258.935 132.073 258.748 132.14 258.508 132.14ZM259.708 116.4C259.562 116.4 259.442 116.353 259.348 116.26C259.268 116.153 259.242 116.013 259.268 115.84C259.402 115.133 259.675 114.587 260.088 114.2C260.515 113.813 261.022 113.62 261.608 113.62C261.968 113.62 262.308 113.7 262.628 113.86C262.948 114.007 263.255 114.18 263.548 114.38C263.855 114.58 264.142 114.76 264.408 114.92C264.688 115.067 264.962 115.14 265.228 115.14C265.588 115.14 265.882 115.027 266.108 114.8C266.335 114.573 266.482 114.273 266.548 113.9C266.588 113.753 266.648 113.647 266.728 113.58C266.822 113.513 266.935 113.487 267.068 113.5C267.215 113.5 267.335 113.553 267.428 113.66C267.522 113.753 267.548 113.887 267.508 114.06C267.375 114.767 267.102 115.313 266.688 115.7C266.288 116.087 265.788 116.28 265.188 116.28C264.828 116.28 264.482 116.207 264.148 116.06C263.828 115.9 263.522 115.727 263.228 115.54C262.935 115.34 262.648 115.16 262.368 115C262.088 114.84 261.815 114.76 261.548 114.76C261.202 114.76 260.908 114.873 260.668 115.1C260.442 115.327 260.295 115.627 260.228 116C260.188 116.133 260.122 116.24 260.028 116.32C259.948 116.387 259.842 116.413 259.708 116.4ZM278.453 132.18C277.146 132.18 276.006 131.887 275.033 131.3C274.073 130.7 273.326 129.86 272.793 128.78C272.273 127.7 272.013 126.42 272.013 124.94C272.013 123.82 272.16 122.82 272.453 121.94C272.76 121.047 273.193 120.293 273.753 119.68C274.313 119.053 274.986 118.573 275.773 118.24C276.573 117.893 277.466 117.72 278.453 117.72C279.786 117.72 280.933 118.013 281.893 118.6C282.866 119.187 283.613 120.02 284.133 121.1C284.666 122.167 284.933 123.44 284.933 124.92C284.933 126.04 284.78 127.047 284.473 127.94C284.166 128.833 283.733 129.593 283.173 130.22C282.613 130.847 281.933 131.333 281.133 131.68C280.346 132.013 279.453 132.18 278.453 132.18ZM278.453 130.72C279.466 130.72 280.32 130.493 281.013 130.04C281.72 129.587 282.26 128.927 282.633 128.06C283.006 127.193 283.193 126.153 283.193 124.94C283.193 123.113 282.78 121.7 281.953 120.7C281.14 119.687 279.973 119.18 278.453 119.18C277.466 119.18 276.62 119.407 275.913 119.86C275.22 120.313 274.686 120.973 274.313 121.84C273.94 122.693 273.753 123.727 273.753 124.94C273.753 126.753 274.166 128.173 274.993 129.2C275.82 130.213 276.973 130.72 278.453 130.72ZM292.425 132.18C291.798 132.18 291.185 132.127 290.585 132.02C289.985 131.913 289.425 131.76 288.905 131.56C288.398 131.36 287.938 131.107 287.525 130.8C287.365 130.68 287.252 130.547 287.185 130.4C287.132 130.24 287.118 130.087 287.145 129.94C287.185 129.78 287.252 129.647 287.345 129.54C287.452 129.433 287.578 129.373 287.725 129.36C287.872 129.347 288.032 129.393 288.205 129.5C288.805 129.927 289.445 130.24 290.125 130.44C290.805 130.627 291.572 130.72 292.425 130.72C293.625 130.72 294.512 130.5 295.085 130.06C295.672 129.607 295.965 129.013 295.965 128.28C295.965 127.68 295.752 127.213 295.325 126.88C294.912 126.533 294.212 126.26 293.225 126.06L291.145 125.64C289.892 125.373 288.952 124.94 288.325 124.34C287.712 123.727 287.405 122.913 287.405 121.9C287.405 121.273 287.532 120.707 287.785 120.2C288.038 119.68 288.392 119.24 288.845 118.88C289.298 118.507 289.838 118.22 290.465 118.02C291.092 117.82 291.785 117.72 292.545 117.72C293.385 117.72 294.165 117.84 294.885 118.08C295.618 118.307 296.278 118.653 296.865 119.12C297.012 119.24 297.112 119.38 297.165 119.54C297.218 119.687 297.225 119.833 297.185 119.98C297.145 120.113 297.072 120.227 296.965 120.32C296.872 120.413 296.745 120.467 296.585 120.48C296.438 120.493 296.272 120.44 296.085 120.32C295.552 119.92 294.998 119.633 294.425 119.46C293.852 119.273 293.218 119.18 292.525 119.18C291.818 119.18 291.205 119.287 290.685 119.5C290.178 119.713 289.778 120.027 289.485 120.44C289.205 120.84 289.065 121.307 289.065 121.84C289.065 122.48 289.258 122.987 289.645 123.36C290.045 123.733 290.692 124.007 291.585 124.18L293.665 124.62C295.012 124.9 296.005 125.327 296.645 125.9C297.298 126.46 297.625 127.227 297.625 128.2C297.625 128.787 297.505 129.327 297.265 129.82C297.025 130.313 296.678 130.74 296.225 131.1C295.772 131.447 295.225 131.713 294.585 131.9C293.945 132.087 293.225 132.18 292.425 132.18Z" fill="white"/>
</svg>
